<svg width="15" height="15" viewBox="0 0 15 15" fill="none" xmlns="http://www.w3.org/2000/svg">
<path fill-rule="evenodd" clip-rule="evenodd" d="M7.5 1.25C4.05062 1.25 1.25 4.05062 1.25 7.5C1.25 10.9494 4.05062 13.75 7.5 13.75C10.9494 13.75 13.75 10.9494 13.75 7.5C13.75 4.05062 10.9494 1.25 7.5 1.25ZM6.395 8.38375L9.48875 5.29C9.7325 5.04625 10.1288 5.04625 10.3725 5.29C10.6163 5.53437 10.6163 5.93 10.3725 6.17437L6.83687 9.71C6.59312 9.95375 6.19687 9.95375 5.95312 9.71L4.6275 8.38375C4.38312 8.14 4.38312 7.74375 4.6275 7.5C4.87125 7.25625 5.26687 7.25625 5.51125 7.5L6.395 8.38375Z" fill="#098E1B"/>
</svg>
