<svg width="29" height="23" viewBox="0 0 29 23" fill="none" xmlns="http://www.w3.org/2000/svg">
<path d="M9.61539 14.7078H24.1912C24.3664 14.7079 24.5369 14.6559 24.6767 14.5597C24.8166 14.4634 24.9181 14.3281 24.9659 14.1744L28.1941 3.87988C28.2294 3.77021 28.2362 3.65452 28.2139 3.54203C28.1916 3.42953 28.1409 3.32333 28.0656 3.23188C27.9904 3.14043 27.8928 3.06624 27.7806 3.01523C27.6684 2.96421 27.5447 2.93778 27.4193 2.93802H7.75339L7.17749 0.576302C7.13755 0.412983 7.03776 0.266951 6.89457 0.162291C6.75138 0.0576316 6.57334 0.000595059 6.38982 0.000588695H1.49593C1.38732 -0.00337483 1.27895 0.0127075 1.17732 0.0478707C1.07569 0.0830339 0.982904 0.136553 0.90452 0.205217C0.826136 0.273882 0.763774 0.356276 0.721174 0.447456C0.678575 0.538635 0.656616 0.636722 0.656616 0.73583C0.656616 0.834938 0.678575 0.933024 0.721174 1.0242C0.763774 1.11538 0.826136 1.19778 0.90452 1.26644C0.982904 1.33511 1.07569 1.38863 1.17732 1.42379C1.27895 1.45895 1.38732 1.47503 1.49593 1.47107H5.7416L8.65469 13.4221C8.1449 13.624 7.72691 13.9798 7.47104 14.4296C7.21518 14.8795 7.13705 15.3959 7.2498 15.8921C7.36256 16.3884 7.65932 16.834 8.09015 17.1541C8.52099 17.4743 9.0596 17.6494 9.61539 17.6499H24.1912C24.2998 17.6539 24.4081 17.6378 24.5098 17.6026C24.6114 17.5675 24.7042 17.5139 24.7826 17.4453C24.861 17.3766 24.9233 17.2942 24.9659 17.203C25.0085 17.1119 25.0305 17.0138 25.0305 16.9147C25.0305 16.8156 25.0085 16.7175 24.9659 16.6263C24.9233 16.5351 24.861 16.4527 24.7826 16.3841C24.7042 16.3154 24.6114 16.2619 24.5098 16.2267C24.4081 16.1915 24.2998 16.1755 24.1912 16.1794H9.61539C9.4071 16.1718 9.21012 16.091 9.0657 15.954C8.92128 15.8169 8.84062 15.6342 8.84062 15.4442C8.84062 15.2541 8.92128 15.0714 9.0657 14.9344C9.21012 14.7973 9.4071 14.7154 9.61539 14.7078Z" fill="white"/>
<path d="M8.80835 19.8551C8.80937 20.2912 8.95215 20.7174 9.21867 21.0796C9.48518 21.4418 9.86347 21.7238 10.3057 21.8901C10.748 22.0564 11.2344 22.0994 11.7034 22.0137C12.1725 21.9281 12.6032 21.7175 12.9411 21.4088C13.279 21.1 13.5089 20.7069 13.6019 20.2791C13.6948 19.8512 13.6466 19.4078 13.4633 19.005C13.28 18.6021 12.9698 18.2578 12.572 18.0156C12.1742 17.7733 11.7065 17.644 11.2282 17.644C10.9101 17.6444 10.5951 17.7018 10.3014 17.8131C10.0076 17.9243 9.74073 18.0873 9.51603 18.2926C9.29133 18.4979 9.11317 18.7416 8.99175 19.0097C8.87032 19.2778 8.80801 19.565 8.80835 19.8551Z" fill="white"/>
<path d="M20.1483 19.8551C20.1493 20.291 20.292 20.717 20.5583 21.0791C20.8246 21.4412 21.2025 21.7232 21.6445 21.8896C22.0864 22.056 22.5726 22.0993 23.0415 22.014C23.5104 21.9288 23.9411 21.7187 24.2792 21.4105C24.6173 21.1022 24.8477 20.7095 24.9412 20.2819C25.0347 19.8544 24.9873 19.4112 24.8048 19.0082C24.6222 18.6052 24.3129 18.2606 23.9157 18.0179C23.5186 17.7751 23.0515 17.645 22.5733 17.644C22.2547 17.6437 21.9393 17.7007 21.6449 17.8117C21.3505 17.9227 21.0831 18.0856 20.8578 18.2909C20.6326 18.4963 20.454 18.7402 20.3322 19.0086C20.2105 19.277 20.148 19.5646 20.1483 19.8551Z" fill="white"/>
</svg>
