<svg width="28" height="28" viewBox="0 0 28 28" fill="none" xmlns="http://www.w3.org/2000/svg">
<g clip-path="url(#clip0_1_2860)">
<path d="M23.3542 12.9119C23.627 11.9752 23.7651 11.0044 23.7642 10.0288C23.7984 7.40418 22.789 4.87338 20.9579 2.99278C19.1267 1.11217 16.6237 0.0357298 13.9991 0C11.3745 0.0357298 8.87155 1.11217 7.04041 2.99278C5.20926 4.87338 4.19981 7.40418 4.23403 10.0288C4.23399 10.678 4.29435 11.3257 4.41443 11.9637C4.65059 13.3392 5.11448 14.6658 5.78672 15.8889L5.95957 16.2434C7.65069 19.8364 9.61102 23.2963 11.8239 26.5937C11.8239 26.5937 12.8523 28.1046 14.0002 27.9925C14.2641 27.9989 14.5268 27.9523 14.7724 27.8555C15.0179 27.7586 15.2416 27.6135 15.4301 27.4287C15.4301 27.4287 16.2895 26.426 16.6045 25.9872L16.6856 25.891C18.6957 22.8 20.4941 19.5765 22.0684 16.2424C22.5729 15.2336 22.987 14.1819 23.3052 13.0998L23.3542 12.9119Z" fill="#AAAAAA"/>
<path d="M20.9877 8.40038L14.0812 3.34538C14.0162 3.29792 13.9379 3.27234 13.8575 3.27234C13.777 3.27234 13.6987 3.29792 13.6338 3.34538L6.72719 8.40038C6.65191 8.46176 6.60307 8.5497 6.59074 8.64605C6.57842 8.7424 6.60355 8.8398 6.66095 8.91816C6.71835 8.99652 6.80363 9.04986 6.89921 9.06716C6.99479 9.08447 7.09337 9.06442 7.1746 9.01116L13.858 4.11741L20.5414 9.01116C20.6226 9.06268 20.7204 9.08138 20.815 9.06346C20.9095 9.04554 20.9937 8.99236 21.0504 8.91468C21.1072 8.837 21.1323 8.74064 21.1207 8.64514C21.109 8.54964 21.0615 8.46214 20.9877 8.40038Z" fill="white"/>
<path d="M19.1586 9.09866C19.0581 9.09866 18.9616 9.13859 18.8905 9.20968C18.8195 9.28077 18.7795 9.37719 18.7795 9.47773V15.5044H15.7512V12.2145C15.7512 11.7124 15.5518 11.2309 15.1967 10.8758C14.8417 10.5208 14.3601 10.3213 13.858 10.3213C13.3559 10.3213 12.8743 10.5208 12.5193 10.8758C12.1642 11.2309 11.9648 11.7124 11.9648 12.2145V15.5044H8.93542V9.47986C8.93815 9.42846 8.93039 9.37704 8.9126 9.32874C8.89481 9.28044 8.86736 9.23626 8.83194 9.19891C8.79652 9.16156 8.75387 9.13183 8.70658 9.1115C8.65929 9.09117 8.60836 9.08069 8.55688 9.08069C8.50541 9.08069 8.45447 9.09117 8.40718 9.1115C8.35989 9.13183 8.31724 9.16156 8.28182 9.19891C8.2464 9.23626 8.21896 9.28044 8.20117 9.32874C8.18338 9.37704 8.17561 9.42846 8.17834 9.47986V15.8867C8.17834 15.9872 8.21828 16.0836 8.28937 16.1547C8.36046 16.2258 8.45688 16.2658 8.55742 16.2658H12.3439C12.4391 16.2658 12.5309 16.2298 12.6008 16.1651C12.6707 16.1003 12.7135 16.0116 12.7208 15.9166C12.7213 15.9066 12.7213 15.8967 12.7208 15.8867V12.2177C12.7208 11.9164 12.8405 11.6274 13.0536 11.4143C13.2666 11.2013 13.5556 11.0816 13.8569 11.0816C14.1583 11.0816 14.4472 11.2013 14.6603 11.4143C14.8734 11.6274 14.9931 11.9164 14.9931 12.2177V15.8867C14.9926 15.8963 14.9926 15.9059 14.9931 15.9155C15.0003 16.0105 15.0432 16.0993 15.1131 16.164C15.183 16.2287 15.2747 16.2647 15.37 16.2647H19.1565C19.257 16.2647 19.3534 16.2248 19.4245 16.1537C19.4956 16.0826 19.5355 15.9862 19.5355 15.8856V9.4788C19.5358 9.37845 19.4963 9.28208 19.4256 9.21082C19.355 9.13956 19.2589 9.09923 19.1586 9.09866Z" fill="white"/>
</g>
<defs>
<clipPath id="clip0_1_2860">
<rect width="19.5302" height="28" fill="white" transform="translate(4.23492)"/>
</clipPath>
</defs>
</svg>
