<svg width="21" height="17" viewBox="0 0 21 17" fill="none" xmlns="http://www.w3.org/2000/svg">
<path d="M17.425 16.4C17.1532 16.4 16.8925 16.292 16.7002 16.0998C16.508 15.9076 16.4 15.6468 16.4 15.375V11.275C16.4 11.0032 16.508 10.7424 16.7002 10.5502C16.8925 10.358 17.1532 10.25 17.425 10.25C17.6969 10.25 17.9576 10.358 18.1498 10.5502C18.342 10.7424 18.45 11.0032 18.45 11.275V15.375C18.45 15.6468 18.342 15.9076 18.1498 16.0998C17.9576 16.292 17.6969 16.4 17.425 16.4Z" fill="#962765"/>
<path d="M19.475 14.35H15.375C15.1031 14.35 14.8424 14.2421 14.6502 14.0498C14.458 13.8576 14.35 13.5969 14.35 13.325C14.35 13.0532 14.458 12.7925 14.6502 12.6003C14.8424 12.408 15.1031 12.3 15.375 12.3H19.475C19.7468 12.3 20.0075 12.408 20.1998 12.6003C20.392 12.7925 20.5 13.0532 20.5 13.325C20.5 13.5969 20.392 13.8576 20.1998 14.0498C20.0075 14.2421 19.7468 14.35 19.475 14.35Z" fill="#962765"/>
<path d="M16.4 2.05H1.025C0.753153 2.05 0.49244 1.94201 0.300216 1.74978C0.107991 1.55756 0 1.29685 0 1.025C0 0.753153 0.107991 0.492441 0.300216 0.300216C0.49244 0.107991 0.753153 0 1.025 0H16.4C16.6718 0 16.9326 0.107991 17.1248 0.300216C17.317 0.492441 17.425 0.753153 17.425 1.025C17.425 1.29685 17.317 1.55756 17.1248 1.74978C16.9326 1.94201 16.6718 2.05 16.4 2.05Z" fill="#962765"/>
<path d="M16.4 8.20002H1.025C0.753153 8.20002 0.49244 8.09203 0.300216 7.89981C0.107991 7.70758 0 7.44687 0 7.17502C0 6.90318 0.107991 6.64246 0.300216 6.45024C0.49244 6.25802 0.753153 6.15002 1.025 6.15002H16.4C16.6718 6.15002 16.9326 6.25802 17.1248 6.45024C17.317 6.64246 17.425 6.90318 17.425 7.17502C17.425 7.44687 17.317 7.70758 17.1248 7.89981C16.9326 8.09203 16.6718 8.20002 16.4 8.20002Z" fill="#962765"/>
<path d="M11.275 14.35H1.025C0.753153 14.35 0.49244 14.2421 0.300215 14.0498C0.107991 13.8576 0 13.5969 0 13.325C0 13.0532 0.107991 12.7925 0.300215 12.6003C0.49244 12.408 0.753153 12.3 1.025 12.3H11.275C11.5468 12.3 11.8076 12.408 11.9998 12.6003C12.192 12.7925 12.3 13.0532 12.3 13.325C12.3 13.5969 12.192 13.8576 11.9998 14.0498C11.8076 14.2421 11.5468 14.35 11.275 14.35Z" fill="#962765"/>
</svg>
