<svg width="16" height="15" viewBox="0 0 16 15" fill="none" xmlns="http://www.w3.org/2000/svg">
<path d="M14.6557 5.14583L10.2217 4.46883L8.23771 0.236826C8.19673 0.1649 8.13744 0.105102 8.06587 0.0635061C7.99429 0.0219106 7.91299 0 7.83021 0C7.74742 0 7.66612 0.0219106 7.59455 0.0635061C7.52297 0.105102 7.46369 0.1649 7.42271 0.236826L5.43671 4.46883L1.00471 5.14583C0.922757 5.15822 0.845823 5.19301 0.78239 5.24635C0.718956 5.29969 0.671486 5.36952 0.645214 5.44812C0.618943 5.52673 0.614891 5.61107 0.633506 5.69183C0.65212 5.77259 0.692677 5.84665 0.750705 5.90583L3.97071 9.20583L3.20871 13.8718C3.19519 13.9553 3.20542 14.0409 3.23822 14.1188C3.27101 14.1968 3.32506 14.2639 3.3942 14.3126C3.46333 14.3613 3.54476 14.3896 3.62919 14.3942C3.71362 14.3989 3.79766 14.3797 3.87171 14.3388L7.83071 12.1508L11.7897 14.3388C11.8638 14.3797 11.9478 14.3989 12.0322 14.3942C12.1167 14.3896 12.1981 14.3613 12.2672 14.3126C12.3363 14.2639 12.3904 14.1968 12.4232 14.1188C12.456 14.0409 12.4662 13.9553 12.4527 13.8718L11.6917 9.20583L14.9117 5.90583C14.9697 5.84653 15.0101 5.77241 15.0287 5.69161C15.0473 5.61081 15.0432 5.52645 15.017 5.4478C14.9907 5.36916 14.9433 5.29927 14.8799 5.24582C14.8165 5.19237 14.7397 5.15742 14.6577 5.14483L14.6557 5.14583Z" fill="#FFC107"/>
</svg>
